<svg xmlns="http://www.w3.org/2000/svg" viewBox="0 0 240 240" role="img" aria-label="WWII dragon-wing aircraft, Ember">
  <rect width="240" height="240" fill="#161210"/>
  <defs><linearGradient id="tr" x1="0" y1="95" x2="0" y2="208" gradientUnits="userSpaceOnUse"><stop offset="0" stop-color="#F0E9DE" stop-opacity="0.42"/><stop offset="1" stop-color="#F0E9DE" stop-opacity="0"/></linearGradient></defs><g fill="url(#tr)"><path d="M167 64 C165 120 168 165 176 206 L192 206 C186 165 181 120 177 64 Z"/><path d="M73 64 C75 120 72 165 64 206 L48 206 C54 165 59 120 63 64 Z"/></g><circle cx="172" cy="64" r="18" fill="#E4572E" opacity="0.16"/><g transform="rotate(45 172 64)"><ellipse cx="172" cy="64" rx="17" ry="3" fill="#F0E9DE"/><ellipse cx="172" cy="64" rx="3" ry="17" fill="#F0E9DE"/></g><circle cx="172" cy="64" r="3.5" fill="#E4572E"/><circle cx="68" cy="64" r="18" fill="#E4572E" opacity="0.16"/><g transform="rotate(45 68 64)"><ellipse cx="68" cy="64" rx="17" ry="3" fill="#F0E9DE"/><ellipse cx="68" cy="64" rx="3" ry="17" fill="#F0E9DE"/></g><circle cx="68" cy="64" r="3.5" fill="#E4572E"/><g fill="#F0E9DE"><path d="M120 76 L131 71 C168 62 205 66 236 86 Q220 82 205 102 Q188 88 172 110 Q156 96 140 117 Q130 106 120 118 Z"/><path d="M120 76 L109 71 C72 62 35 66 4 86 Q20 82 35 102 Q52 88 68 110 Q84 96 100 117 Q110 106 120 118 Z"/></g><g fill="#F0E9DE"><path d="M120 38 C126 46 129 66 129 96 C129 132 126 162 120 188 C114 162 111 132 111 96 C111 66 114 46 120 38 Z"/><path d="M120 162 C131 163 140 168 149 177 C140 175 131 175 121 176 Z"/><path d="M120 162 C109 163 100 168 91 177 C100 175 109 175 119 176 Z"/></g><g stroke="#E4572E" stroke-width="2" stroke-linecap="round" stroke-linejoin="round" fill="none"><path d="M134.0 80.0 L174.9 81.4 L207.5 83.3 L236.0 86.0"/><path d="M134.0 80.0 L163.0 86.9 L186.0 93.0 L205.0 102.0"/><path d="M134.0 80.0 L151.7 88.9 L163.8 98.5 L172.0 110.0"/><path d="M134.0 80.0 L137.4 94.6 L139.3 106.5 L140.0 117.0"/><path d="M106.0 80.0 L65.1 81.4 L32.5 83.3 L4.0 86.0"/><path d="M106.0 80.0 L77.0 86.9 L54.0 93.0 L35.0 102.0"/><path d="M106.0 80.0 L88.3 88.9 L76.2 98.5 L68.0 110.0"/><path d="M106.0 80.0 L102.6 94.6 L100.7 106.5 L100.0 117.0"/></g><g fill="#E4572E"><circle cx="174.9" cy="81.4" r="1.7"/><circle cx="207.5" cy="83.3" r="1.7"/><circle cx="163.0" cy="86.9" r="1.7"/><circle cx="186.0" cy="93.0" r="1.7"/><circle cx="151.7" cy="88.9" r="1.7"/><circle cx="163.8" cy="98.5" r="1.7"/><circle cx="137.4" cy="94.6" r="1.7"/><circle cx="139.3" cy="106.5" r="1.7"/><circle cx="65.1" cy="81.4" r="1.7"/><circle cx="32.5" cy="83.3" r="1.7"/><circle cx="77.0" cy="86.9" r="1.7"/><circle cx="54.0" cy="93.0" r="1.7"/><circle cx="88.3" cy="88.9" r="1.7"/><circle cx="76.2" cy="98.5" r="1.7"/><circle cx="102.6" cy="94.6" r="1.7"/><circle cx="100.7" cy="106.5" r="1.7"/></g><path d="M120 60 C124 62 125 74 124 90 C123 95 121 98 120 98 C119 98 117 95 116 90 C115 74 116 62 120 60 Z" fill="#E4572E"/><g stroke="#161210" stroke-width="1.6"><path d="M116.5 76 L123.5 76 M117 87 L123 87"/></g>
</svg>
