<svg xmlns="http://www.w3.org/2000/svg" viewBox="0 0 240 240" role="img" aria-label="Steampunk dragon aircraft headB-horned">
  <style>
    :root{ --ink:#3A2E20; --acc:#B0642F; --bg:#EDE4D2; --steam:#8A9599; }
    @media (prefers-color-scheme: dark){ :root{ --ink:#C79A4B; --acc:#5FC2B0; --bg:#1B1D21; --steam:#CFD6D8; } }
  </style>
  <defs><linearGradient id="st" x1="0" y1="150" x2="0" y2="212" gradientUnits="userSpaceOnUse"><stop offset="0" stop-color="var(--steam)" stop-opacity="0.5"/><stop offset="1" stop-color="var(--steam)" stop-opacity="0"/></linearGradient></defs><g fill="url(#st)"><path d="M108 156 C106 178 106 195 108 210 L118 210 C118 195 117 178 116 156 Z"/><path d="M124 156 C123 178 123 195 121 210 L132 210 C132 195 134 178 132 156 Z"/></g><path d="M120 76 L131 71 C168 62 205 66 236 86 C224 92 214 92 206 95 C194 100 186 99 174 102 C160 108 152 108 141 113 C133 116 126 117 120 117 Z" fill="var(--ink)"/><path d="M120 76 L109 71 C72 62 35 66 4 86 C16 92 26 92 34 95 C46 100 54 99 66 102 C80 108 88 108 99 113 C107 116 114 117 120 117 Z" fill="var(--ink)"/><path d="M120 58 C129 60 133 72 132 92 C132 118 129 140 122 156 L118 156 C111 140 108 118 108 92 C107 72 111 60 120 58 Z" fill="var(--ink)"/><g stroke="var(--acc)" stroke-width="2" stroke-linecap="round" fill="none"><path d="M135 78 L224 87 M135 78 L200 95 M135 78 L172 101 M135 78 L142 112"/><path d="M105 78 L16 87 M105 78 L40 95 M105 78 L68 101 M105 78 L98 112"/></g><g stroke="var(--acc)" stroke-width="3" stroke-linecap="round"><path d="M110 98 L130 98 M111 124 L129 124"/></g><circle cx="120" cy="110" r="7.5" fill="none" stroke="var(--acc)" stroke-width="2"/><circle cx="120" cy="110" r="2.4" fill="var(--acc)"/><g fill="var(--acc)"><circle cx="110" cy="72" r="1.4"/><circle cx="110" cy="90" r="1.4"/><circle cx="112" cy="132" r="1.4"/><circle cx="114" cy="150" r="1.4"/><circle cx="130" cy="72" r="1.4"/><circle cx="130" cy="90" r="1.4"/><circle cx="128" cy="132" r="1.4"/><circle cx="126" cy="150" r="1.4"/></g><circle cx="172" cy="59" r="18" fill="var(--acc)" opacity="0.16"/><path d="M166 66 C166 62 178 62 178 66 L178 90 C178 94 166 94 166 90 Z" fill="var(--ink)"/><ellipse cx="172" cy="59" rx="17" ry="3" fill="var(--ink)"/><ellipse cx="172" cy="59" rx="3" ry="17" fill="var(--ink)"/><circle cx="172" cy="59" r="3.5" fill="var(--acc)"/><circle cx="68" cy="59" r="18" fill="var(--acc)" opacity="0.16"/><path d="M62 66 C62 62 74 62 74 66 L74 90 C74 94 62 94 62 90 Z" fill="var(--ink)"/><ellipse cx="68" cy="59" rx="17" ry="3" fill="var(--ink)"/><ellipse cx="68" cy="59" rx="3" ry="17" fill="var(--ink)"/><circle cx="68" cy="59" r="3.5" fill="var(--acc)"/><path d="M120 32 C130 36 133 46 129 58 L111 58 C107 46 110 36 120 32 Z" fill="var(--ink)"/><path d="M127 42 C137 39 146 43 152 52 C143 49 135 48 126 50 Z" fill="var(--ink)"/><path d="M113 42 C103 39 94 43 88 52 C97 49 105 48 114 50 Z" fill="var(--ink)"/><path d="M112 50 L128 50" stroke="var(--acc)" stroke-width="2.4" stroke-linecap="round"/><circle cx="115" cy="53" r="2" fill="var(--acc)"/><circle cx="125" cy="53" r="2" fill="var(--acc)"/>
</svg>
