<svg xmlns="http://www.w3.org/2000/svg" viewBox="0 0 100 100" role="img" aria-label="Head-on warbird dragon mark">
  <style>
    :root{ --ink:#1E2A22; --accent:#C8102E; --bg:transparent; }
    @media (prefers-color-scheme: dark){ :root{ --ink:#E8E4D8; --accent:#C8102E; } }
    .ink{ fill:var(--ink); } .accent{ fill:var(--accent); } .bg{ fill:var(--bg); }
  </style>
  <rect class="bg" width="100" height="100"/>
  <g class="ink">
    <path d="M52 46 L92 53 L98 58 L86 59 L93 65 L79 63 L84 71 L54 61 Z"/>
    <path d="M48 46 L8 53 L2 58 L14 59 L7 65 L21 63 L16 71 L46 61 Z"/>
    <path d="M50 20 C54 34 55 60 50 88 C45 60 46 34 50 20 Z"/>
    <path d="M49 26 C44 19 41 13 37 8 C43 12 48 18 50 26 Z"/>
    <path d="M51 26 C56 19 59 13 63 8 C57 12 52 18 50 26 Z"/>
    <path d="M50 78 L36 89 L44 89 L50 82 L56 89 L64 89 Z"/>
  </g>
  <g class="accent">
    <path d="M45 31 L49 29 L48 34 Z"/>
    <path d="M55 31 L51 29 L52 34 Z"/>
    <ellipse cx="50" cy="24" rx="13" ry="1.8"/>
  </g>
</svg>
