<svg xmlns="http://www.w3.org/2000/svg" viewBox="0 0 240 240" role="img" aria-label="Wyvern Watch mark, micro"><rect width="240" height="240" fill="#F1EAD9"/><circle cx="172" cy="64" r="18" fill="#C0392B" opacity="0.16"/><g transform="rotate(45 172 64)"><ellipse cx="172" cy="64" rx="17" ry="3" fill="#21303A"/><ellipse cx="172" cy="64" rx="3" ry="17" fill="#21303A"/></g><circle cx="172" cy="64" r="3.5" fill="#C0392B"/><circle cx="68" cy="64" r="18" fill="#C0392B" opacity="0.16"/><g transform="rotate(45 68 64)"><ellipse cx="68" cy="64" rx="17" ry="3" fill="#21303A"/><ellipse cx="68" cy="64" rx="3" ry="17" fill="#21303A"/></g><circle cx="68" cy="64" r="3.5" fill="#C0392B"/><g fill="#21303A"><path d="M120 76 L131 71 C168 62 205 66 236 86 Q220 82 205 102 Q188 88 172 110 Q156 96 140 117 Q130 106 120 118 Z"/><path d="M120 76 L109 71 C72 62 35 66 4 86 Q20 82 35 102 Q52 88 68 110 Q84 96 100 117 Q110 106 120 118 Z"/></g><g fill="#21303A"><path d="M120 38 C126 46 129 66 129 96 C129 132 126 162 120 188 C114 162 111 132 111 96 C111 66 114 46 120 38 Z"/><path d="M120 162 C131 163 140 168 149 177 C140 175 131 175 121 176 Z"/><path d="M120 162 C109 163 100 168 91 177 C100 175 109 175 119 176 Z"/></g><path d="M120 60 C124 62 125 74 124 90 C123 95 121 98 120 98 C119 98 117 95 116 90 C115 74 116 62 120 60 Z" fill="#C0392B"/></svg>
